<?xml version="1.0" encoding="UTF-8"?>
<svg xmlns="http://www.w3.org/2000/svg" viewBox="0 0 1200 900">
  <defs>
    <style>
      .title { font-family: Arial, sans-serif; font-size: 24px; font-weight: bold; text-anchor: middle; fill: #2c3e50; }
      .subtitle { font-family: Arial, sans-serif; font-size: 16px; text-anchor: middle; fill: #34495e; }
      .start-end { fill: #2c3e50; stroke: #2c3e50; stroke-width: 2; }
      .activity { fill: #3498db; stroke: #2980b9; stroke-width: 2; rx: 20; ry: 20; }
      .decision { fill: #f39c12; stroke: #e67e22; stroke-width: 2; }
      .activity-text { font-family: Arial, sans-serif; font-size: 11px; text-anchor: middle; fill: white; font-weight: bold; }
      .decision-text { font-family: Arial, sans-serif; font-size: 10px; text-anchor: middle; fill: white; font-weight: bold; }
      .flow { stroke: #34495e; stroke-width: 2; fill: none; marker-end: url(#arrowhead); }
      .flow-label { font-family: Arial, sans-serif; font-size: 10px; fill: #2c3e50; font-weight: bold; }
      .swimlane { fill: none; stroke: #bdc3c7; stroke-width: 1; stroke-dasharray: 5,5; }
      .swimlane-label { font-family: Arial, sans-serif; font-size: 14px; font-weight: bold; fill: #7f8c8d; }
    </style>
    <defs>
      <marker id="arrowhead" markerWidth="10" markerHeight="7" refX="9" refY="3.5" orient="auto">
        <polygon points="0 0, 10 3.5, 0 7" fill="#34495e"/>
      </marker>
    </defs>
  </defs>
  
  <!-- Title -->
  <text x="600" y="30" class="title">DIAGRAM ACTIVITY - PROSES PEMERIKSAAN HIPERTENSI</text>
  <text x="600" y="55" class="subtitle">Sistem Manajemen Data Kesehatan Akudihatinya</text>
  
  <!-- Swimlanes -->
  <rect x="50" y="80" width="200" height="780" class="swimlane"/>
  <text x="150" y="100" class="swimlane-label">Petugas Puskesmas</text>
  
  <rect x="250" y="80" width="250" height="780" class="swimlane"/>
  <text x="375" y="100" class="swimlane-label">Sistem Pemeriksaan HT</text>
  
  <rect x="500" y="80" width="200" height="780" class="swimlane"/>
  <text x="600" y="100" class="swimlane-label">Database</text>
  
  <rect x="700" y="80" width="250" height="780" class="swimlane"/>
  <text x="825" y="100" class="swimlane-label">Analisis Service</text>
  
  <!-- Start -->
  <circle cx="150" cy="130" r="15" class="start-end"/>
  <text x="150" y="155" class="activity-text">Mulai</text>
  
  <!-- User Activities -->
  <rect x="100" y="180" width="100" height="40" class="activity"/>
  <text x="150" y="195" class="activity-text">Pilih Pasien</text>
  <text x="150" y="210" class="activity-text">untuk Periksa</text>
  
  <rect x="100" y="260" width="100" height="40" class="activity"/>
  <text x="150" y="275" class="activity-text">Ukur Tekanan</text>
  <text x="150" y="290" class="activity-text">Darah</text>
  
  <rect x="100" y="340" width="100" height="40" class="activity"/>
  <text x="150" y="355" class="activity-text">Input Hasil</text>
  <text x="150" y="370" class="activity-text">Pemeriksaan</text>
  
  <rect x="100" y="420" width="100" height="40" class="activity"/>
  <text x="150" y="435" class="activity-text">Submit</text>
  <text x="150" y="450" class="activity-text">Data</text>
  
  <!-- System Activities -->
  <rect x="300" y="420" width="100" height="40" class="activity"/>
  <text x="350" y="435" class="activity-text">Terima</text>
  <text x="350" y="450" class="activity-text">Data HT</text>
  
  <rect x="300" y="500" width="100" height="40" class="activity"/>
  <text x="350" y="515" class="activity-text">Validasi</text>
  <text x="350" y="530" class="activity-text">Input</text>
  
  <!-- Analysis Service Activities -->
  <rect x="750" y="580" width="150" height="40" class="activity"/>
  <text x="825" y="595" class="activity-text">Analisis Tekanan</text>
  <text x="825" y="610" class="activity-text">Darah</text>
  
  <rect x="750" y="660" width="150" height="40" class="activity"/>
  <text x="825" y="675" class="activity-text">Tentukan Status</text>
  <text x="825" y="690" class="activity-text">Hipertensi</text>
  
  <rect x="750" y="740" width="150" height="40" class="activity"/>
  <text x="825" y="755" class="activity-text">Generate</text>
  <text x="825" y="770" class="activity-text">Rekomendasi</text>
  
  <!-- Decision Points -->
  <polygon points="350,580 380,600 350,620 320,600" class="decision"/>
  <text x="350" y="605" class="decision-text">Valid?</text>
  
  <!-- Database Activities -->
  <rect x="550" y="800" width="100" height="40" class="activity"/>
  <text x="600" y="815" class="activity-text">Simpan Data</text>
  <text x="600" y="830" class="activity-text">Pemeriksaan</text>
  
  <!-- Success Response -->
  <rect x="300" y="800" width="100" height="40" class="activity"/>
  <text x="350" y="815" class="activity-text">Kirim Response</text>
  <text x="350" y="830" class="activity-text">dengan Status</text>
  
  <rect x="100" y="800" width="100" height="40" class="activity"/>
  <text x="150" y="815" class="activity-text">Tampilkan</text>
  <text x="150" y="830" class="activity-text">Hasil &amp; Status</text>
  
  <!-- Error Response -->
  <rect x="100" y="620" width="100" height="40" class="activity"/>
  <text x="150" y="635" class="activity-text">Tampilkan</text>
  <text x="150" y="650" class="activity-text">Error</text>
  
  <!-- End -->
  <circle cx="150" cy="690" r="15" class="start-end"/>
  <circle cx="150" cy="690" r="10" fill="white"/>
  
  <circle cx="150" cy="860" r="15" class="start-end"/>
  <circle cx="150" cy="860" r="10" fill="white"/>
  
  <!-- Flows -->
  <line x1="150" y1="145" x2="150" y2="180" class="flow"/>
  <line x1="150" y1="220" x2="150" y2="260" class="flow"/>
  <line x1="150" y1="300" x2="150" y2="340" class="flow"/>
  <line x1="150" y1="380" x2="150" y2="420" class="flow"/>
  <line x1="200" y1="440" x2="300" y2="440" class="flow"/>
  <line x1="350" y1="460" x2="350" y2="500" class="flow"/>
  <line x1="350" y1="540" x2="350" y2="580" class="flow"/>
  
  <line x1="380" y1="600" x2="750" y2="600" class="flow"/>
  <text x="550" y="595" class="flow-label">Ya</text>
  
  <line x1="825" y1="620" x2="825" y2="660" class="flow"/>
  <line x1="825" y1="700" x2="825" y2="740" class="flow"/>
  <line x1="750" y1="760" x2="600" y2="800" class="flow"/>
  <line x1="600" y1="840" x2="350" y2="820" class="flow"/>
  <line x1="300" y1="820" x2="150" y2="820" class="flow"/>
  <line x1="150" y1="840" x2="150" y2="860" class="flow"/>
  
  <!-- Error Flows -->
  <line x1="320" y1="600" x2="150" y2="620" class="flow"/>
  <text x="220" y="595" class="flow-label">Tidak</text>
  
  <line x1="150" y1="660" x2="150" y2="690" class="flow"/>
  
</svg>