<?xml version="1.0" encoding="UTF-8"?>
<svg xmlns="http://www.w3.org/2000/svg" viewBox="0 0 1200 800">
  <defs>
    <style>
      .title { font-family: Arial, sans-serif; font-size: 24px; font-weight: bold; text-anchor: middle; fill: #2c3e50; }
      .subtitle { font-family: Arial, sans-serif; font-size: 16px; text-anchor: middle; fill: #34495e; }
      .class-box { fill: #ecf0f1; stroke: #34495e; stroke-width: 2; }
      .class-header { fill: #e74c3c; stroke: #c0392b; stroke-width: 1; }
      .class-name { font-family: Arial, sans-serif; font-size: 14px; font-weight: bold; text-anchor: middle; fill: white; }
      .attribute { font-family: Arial, sans-serif; font-size: 10px; fill: #2c3e50; }
      .method { font-family: Arial, sans-serif; font-size: 10px; fill: #2c3e50; }
      .relationship { stroke: #34495e; stroke-width: 1.5; fill: none; }
      .composition { stroke: #e74c3c; stroke-width: 2; fill: none; }
      .inheritance { stroke: #9b59b6; stroke-width: 2; fill: none; }
      .dependency { stroke: #f39c12; stroke-width: 1.5; fill: none; stroke-dasharray: 5,5; }
    </style>
  </defs>
  
  <!-- Title -->
  <text x="600" y="30" class="title">DIAGRAM CLASS - DOMAIN PEMERIKSAAN HIPERTENSI</text>
  <text x="600" y="55" class="subtitle">Sistem Manajemen Data Kesehatan Akudihatinya</text>
  
  <!-- HtExamination Class -->
  <g id="ht-examination-class">
    <rect x="50" y="100" width="280" height="300" class="class-box"/>
    <rect x="50" y="100" width="280" height="30" class="class-header"/>
    <text x="190" y="120" class="class-name">HtExamination</text>
    
    <!-- Attributes -->
    <text x="60" y="140" class="attribute">- id: int</text>
    <text x="60" y="155" class="attribute">- patient_id: int</text>
    <text x="60" y="170" class="attribute">- examination_date: date</text>
    <text x="60" y="185" class="attribute">- systolic_pressure: int</text>
    <text x="60" y="200" class="attribute">- diastolic_pressure: int</text>
    <text x="60" y="215" class="attribute">- ht_status: enum</text>
    <text x="60" y="230" class="attribute">- is_controlled: boolean</text>
    <text x="60" y="245" class="attribute">- recommendations: text</text>
    <text x="60" y="260" class="attribute">- notes: text</text>
    <text x="60" y="275" class="attribute">- created_at: timestamp</text>
    <text x="60" y="290" class="attribute">- updated_at: timestamp</text>
    
    <!-- Methods -->
    <line x1="50" y1="300" x2="330" y2="300" stroke="#34495e" stroke-width="1"/>
    <text x="60" y="315" class="method">+ calculateHTStatus(): string</text>
    <text x="60" y="330" class="method">+ isControlled(): boolean</text>
    <text x="60" y="345" class="method">+ getBloodPressureCategory(): string</text>
    <text x="60" y="360" class="method">+ generateRecommendations(): string</text>
    <text x="60" y="375" class="method">+ getFormattedPressure(): string</text>
    <text x="60" y="390" class="method">+ patient(): BelongsTo</text>
  </g>
  
  <!-- HTController Class -->
  <g id="ht-controller-class">
    <rect x="400" y="100" width="300" height="250" class="class-box"/>
    <rect x="400" y="100" width="300" height="30" class="class-header"/>
    <text x="550" y="120" class="class-name">HTController</text>
    
    <!-- Methods -->
    <text x="410" y="145" class="method">+ index(request): JsonResponse</text>
    <text x="410" y="160" class="method">+ store(request): JsonResponse</text>
    <text x="410" y="175" class="method">+ show(id): JsonResponse</text>
    <text x="410" y="190" class="method">+ update(request, id): JsonResponse</text>
    <text x="410" y="205" class="method">+ destroy(id): JsonResponse</text>
    <text x="410" y="220" class="method">+ getPatientHistory(patientId): JsonResponse</text>
    <text x="410" y="235" class="method">+ generateReport(request): JsonResponse</text>
    <text x="410" y="250" class="method">- validateHTData(data): array</text>
    <text x="410" y="265" class="method">- analyzeBloodPressure(systolic, diastolic): array</text>
    <text x="410" y="280" class="method">- updatePatientHTStatus(patient): void</text>
    <text x="410" y="295" class="method">- formatHTResponse(examination): array</text>
    <text x="410" y="310" class="method">- checkPressureValidation(data): boolean</text>
    <text x="410" y="325" class="method">- generateHTRecommendations(status): string</text>
    <text x="410" y="340" class="method">- calculateControlledStatus(pressure): boolean</text>
  </g>
  
  <!-- HTRequest Class -->
  <g id="ht-request-class">
    <rect x="800" y="100" width="250" height="180" class="class-box"/>
    <rect x="800" y="100" width="250" height="30" class="class-header"/>
    <text x="925" y="120" class="class-name">HTRequest</text>
    
    <!-- Methods -->
    <text x="810" y="145" class="method">+ authorize(): boolean</text>
    <text x="810" y="160" class="method">+ rules(): array</text>
    <text x="810" y="175" class="method">+ messages(): array</text>
    <text x="810" y="190" class="method">- systolicValidationRules(): array</text>
    <text x="810" y="205" class="method">- diastolicValidationRules(): array</text>
    <text x="810" y="220" class="method">- dateValidationRules(): array</text>
    <text x="810" y="235" class="method">- patientValidationRules(): array</text>
    <text x="810" y="250" class="method">- customValidationMessages(): array</text>
    <text x="810" y="265" class="method">- pressureRangeValidation(): array</text>
  </g>
  
  <!-- HTResource Class -->
  <g id="ht-resource-class">
    <rect x="400" y="400" width="250" height="150" class="class-box"/>
    <rect x="400" y="400" width="250" height="30" class="class-header"/>
    <text x="525" y="420" class="class-name">HTResource</text>
    
    <!-- Methods -->
    <text x="410" y="445" class="method">+ toArray(request): array</text>
    <text x="410" y="460" class="method">- formatExaminationData(): array</text>
    <text x="410" y="475" class="method">- formatPressureInfo(): array</text>
    <text x="410" y="490" class="method">- formatStatusInfo(): array</text>
    <text x="410" y="505" class="method">- formatPatientInfo(): array</text>
    <text x="410" y="520" class="method">- formatRecommendations(): array</text>
    <text x="410" y="535" class="method">- hidePrivateFields(): array</text>
  </g>
  
  <!-- Patient Class -->
  <g id="patient-class">
    <rect x="50" y="450" width="200" height="120" class="class-box"/>
    <rect x="50" y="450" width="200" height="30" class="class-header"/>
    <text x="150" y="470" class="class-name">Patient</text>
    
    <!-- Attributes -->
    <text x="60" y="490" class="attribute">- id: int</text>
    <text x="60" y="505" class="attribute">- name: string</text>
    <text x="60" y="520" class="attribute">- has_ht: boolean</text>
    
    <!-- Methods -->
    <line x1="50" y1="530" x2="250" y2="530" stroke="#34495e" stroke-width="1"/>
    <text x="60" y="545" class="method">+ htExaminations(): HasMany</text>
    <text x="60" y="560" class="method">+ updateHTStatus(): void</text>
  </g>
  
  <!-- HTAnalysisService Class -->
  <g id="ht-analysis-service-class">
    <rect x="800" y="350" width="250" height="200" class="class-box"/>
    <rect x="800" y="350" width="250" height="30" class="class-header"/>
    <text x="925" y="370" class="class-name">HTAnalysisService</text>
    
    <!-- Methods -->
    <text x="810" y="395" class="method">+ analyzeBloodPressure(systolic, diastolic): array</text>
    <text x="810" y="410" class="method">+ calculateHTStatus(pressure): string</text>
    <text x="810" y="425" class="method">+ determineControlledStatus(pressure): boolean</text>
    <text x="810" y="440" class="method">+ generateRecommendations(status): string</text>
    <text x="810" y="455" class="method">+ validatePressureRange(systolic, diastolic): boolean</text>
    <text x="810" y="470" class="method">- applySystolicStandards(value): string</text>
    <text x="810" y="485" class="method">- applyDiastolicStandards(value): string</text>
    <text x="810" y="500" class="method">- determineOverallStatus(systolic, diastolic): string</text>
    <text x="810" y="515" class="method">- getLifestyleRecommendations(status): array</text>
    <text x="810" y="530" class="method">- getMedicationRecommendations(status): array</text>
  </g>
  
  <!-- HTConstants Class -->
  <g id="ht-constants-class">
    <rect x="800" y="600" width="250" height="150" class="class-box"/>
    <rect x="800" y="600" width="250" height="30" class="class-header"/>
    <text x="925" y="620" class="class-name">HTConstants</text>
    
    <!-- Constants -->
    <text x="810" y="640" class="attribute">+ NORMAL_SYSTOLIC_MAX: int = 120</text>
    <text x="810" y="655" class="attribute">+ NORMAL_DIASTOLIC_MAX: int = 80</text>
    <text x="810" y="670" class="attribute">+ STAGE1_SYSTOLIC_MAX: int = 139</text>
    <text x="810" y="685" class="attribute">+ STAGE1_DIASTOLIC_MAX: int = 89</text>
    <text x="810" y="700" class="attribute">+ STAGE2_SYSTOLIC_MIN: int = 140</text>
    <text x="810" y="715" class="attribute">+ STAGE2_DIASTOLIC_MIN: int = 90</text>
    <text x="810" y="730" class="attribute">+ HT_STATUS_OPTIONS: array</text>
  </g>
  
  <!-- Relationships -->
  <!-- HtExamination to Patient (many:1) -->
  <line x1="150" y1="400" x2="150" y2="450" class="relationship"/>
  <text x="130" y="420" class="attribute">*</text>
  <text x="130" y="440" class="attribute">1</text>
  
  <!-- HTController uses HtExamination (dependency) -->
  <line x1="400" y1="200" x2="330" y2="200" class="dependency"/>
  
  <!-- HTController uses HTRequest (dependency) -->
  <line x1="700" y1="180" x2="800" y2="180" class="dependency"/>
  
  <!-- HTController uses HTResource (dependency) -->
  <line x1="550" y1="350" x2="550" y2="400" class="dependency"/>
  
  <!-- HTController uses HTAnalysisService (dependency) -->
  <line x1="700" y1="250" x2="800" y2="400" class="dependency"/>
  
  <!-- HTRequest uses HTConstants (dependency) -->
  <line x1="925" y1="280" x2="925" y2="600" class="dependency"/>
  
  <!-- HTAnalysisService uses HTConstants (dependency) -->
  <line x1="925" y1="550" x2="925" y2="600" class="dependency"/>
  
  <!-- Legend -->
  <g id="legend">
    <text x="50" y="620" class="class-name">Legenda:</text>
    <line x1="50" y1="640" x2="100" y2="640" class="relationship"/>
    <text x="110" y="645" class="attribute">Asosiasi</text>
    <line x1="50" y1="660" x2="100" y2="660" class="dependency"/>
    <text x="110" y="665" class="attribute">Dependensi</text>
  </g>
  
</svg>