<?xml version="1.0" encoding="UTF-8"?>
<svg xmlns="http://www.w3.org/2000/svg" viewBox="0 0 1000 800">
  <defs>
    <style>
      .title { font-family: Arial, sans-serif; font-size: 24px; font-weight: bold; text-anchor: middle; fill: #2c3e50; }
      .subtitle { font-family: Arial, sans-serif; font-size: 16px; text-anchor: middle; fill: #34495e; }
      .start-end { fill: #2c3e50; stroke: #2c3e50; stroke-width: 2; }
      .activity { fill: #3498db; stroke: #2980b9; stroke-width: 2; rx: 20; ry: 20; }
      .decision { fill: #f39c12; stroke: #e67e22; stroke-width: 2; }
      .activity-text { font-family: Arial, sans-serif; font-size: 11px; text-anchor: middle; fill: white; font-weight: bold; }
      .decision-text { font-family: Arial, sans-serif; font-size: 10px; text-anchor: middle; fill: white; font-weight: bold; }
      .flow { stroke: #34495e; stroke-width: 2; fill: none; marker-end: url(#arrowhead); }
      .flow-label { font-family: Arial, sans-serif; font-size: 10px; fill: #2c3e50; font-weight: bold; }
      .swimlane { fill: none; stroke: #bdc3c7; stroke-width: 1; stroke-dasharray: 5,5; }
      .swimlane-label { font-family: Arial, sans-serif; font-size: 14px; font-weight: bold; fill: #7f8c8d; }
    </style>
    <defs>
      <marker id="arrowhead" markerWidth="10" markerHeight="7" refX="9" refY="3.5" orient="auto">
        <polygon points="0 0, 10 3.5, 0 7" fill="#34495e"/>
      </marker>
    </defs>
  </defs>
  
  <!-- Title -->
  <text x="500" y="30" class="title">DIAGRAM ACTIVITY - PROSES AUTENTIKASI PENGGUNA</text>
  <text x="500" y="55" class="subtitle">Sistem Manajemen Data Kesehatan Akudihatinya</text>
  
  <!-- Swimlanes -->
  <rect x="50" y="80" width="200" height="680" class="swimlane"/>
  <text x="150" y="100" class="swimlane-label">Pengguna</text>
  
  <rect x="250" y="80" width="250" height="680" class="swimlane"/>
  <text x="375" y="100" class="swimlane-label">Sistem Autentikasi</text>
  
  <rect x="500" y="80" width="200" height="680" class="swimlane"/>
  <text x="600" y="100" class="swimlane-label">Database</text>
  
  <rect x="700" y="80" width="200" height="680" class="swimlane"/>
  <text x="800" y="100" class="swimlane-label">Token Service</text>
  
  <!-- Start -->
  <circle cx="150" cy="130" r="15" class="start-end"/>
  <text x="150" y="155" class="activity-text">Mulai</text>
  
  <!-- User Activities -->
  <rect x="100" y="180" width="100" height="40" class="activity"/>
  <text x="150" y="195" class="activity-text">Masukkan</text>
  <text x="150" y="210" class="activity-text">Kredensial</text>
  
  <!-- System Activities -->
  <rect x="300" y="180" width="100" height="40" class="activity"/>
  <text x="350" y="195" class="activity-text">Terima</text>
  <text x="350" y="210" class="activity-text">Request Login</text>
  
  <rect x="300" y="260" width="100" height="40" class="activity"/>
  <text x="350" y="275" class="activity-text">Validasi</text>
  <text x="350" y="290" class="activity-text">Input</text>
  
  <!-- Database Activities -->
  <rect x="550" y="340" width="100" height="40" class="activity"/>
  <text x="600" y="355" class="activity-text">Cari Pengguna</text>
  <text x="600" y="370" class="activity-text">di Database</text>
  
  <rect x="550" y="420" width="100" height="40" class="activity"/>
  <text x="600" y="435" class="activity-text">Verifikasi</text>
  <text x="600" y="450" class="activity-text">Password</text>
  
  <!-- Decision Points -->
  <polygon points="350,340 380,360 350,380 320,360" class="decision"/>
  <text x="350" y="365" class="decision-text">Valid?</text>
  
  <polygon points="600,500 630,520 600,540 570,520" class="decision"/>
  <text x="600" y="525" class="decision-text">Benar?</text>
  
  <!-- Token Service Activities -->
  <rect x="750" y="580" width="100" height="40" class="activity"/>
  <text x="800" y="595" class="activity-text">Generate</text>
  <text x="800" y="610" class="activity-text">Token</text>
  
  <rect x="550" y="640" width="100" height="40" class="activity"/>
  <text x="600" y="655" class="activity-text">Simpan Refresh</text>
  <text x="600" y="670" class="activity-text">Token</text>
  
  <!-- Success Response -->
  <rect x="300" y="700" width="100" height="40" class="activity"/>
  <text x="350" y="715" class="activity-text">Kirim Token</text>
  <text x="350" y="730" class="activity-text">ke Pengguna</text>
  
  <!-- Error Response -->
  <rect x="100" y="500" width="100" height="40" class="activity"/>
  <text x="150" y="515" class="activity-text">Tampilkan</text>
  <text x="150" y="530" class="activity-text">Error</text>
  
  <!-- End -->
  <circle cx="150" cy="580" r="15" class="start-end"/>
  <circle cx="150" cy="580" r="10" fill="white"/>
  
  <circle cx="150" cy="760" r="15" class="start-end"/>
  <circle cx="150" cy="760" r="10" fill="white"/>
  
  <!-- Flows -->
  <line x1="150" y1="145" x2="150" y2="180" class="flow"/>
  <line x1="200" y1="200" x2="300" y2="200" class="flow"/>
  <line x1="350" y1="220" x2="350" y2="260" class="flow"/>
  <line x1="350" y1="300" x2="350" y2="340" class="flow"/>
  <line x1="380" y1="360" x2="550" y2="360" class="flow"/>
  <text x="450" y="355" class="flow-label">Ya</text>
  
  <line x1="600" y1="380" x2="600" y2="420" class="flow"/>
  <line x1="600" y1="460" x2="600" y2="500" class="flow"/>
  <line x1="630" y1="520" x2="750" y2="600" class="flow"/>
  <text x="680" y="515" class="flow-label">Ya</text>
  
  <line x1="800" y1="620" x2="600" y2="640" class="flow"/>
  <line x1="600" y1="680" x2="350" y2="700" class="flow"/>
  <line x1="350" y1="740" x2="150" y2="760" class="flow"/>
  
  <!-- Error Flows -->
  <line x1="320" y1="360" x2="150" y2="500" class="flow"/>
  <text x="220" y="420" class="flow-label">Tidak</text>
  
  <line x1="570" y1="520" x2="150" y2="520" class="flow"/>
  <text x="350" y="515" class="flow-label">Tidak</text>
  
  <line x1="150" y1="540" x2="150" y2="580" class="flow"/>
  
</svg>