<?xml version="1.0" encoding="UTF-8"?>
<svg xmlns="http://www.w3.org/2000/svg" viewBox="0 0 1000 700">
  <defs>
    <style>
      .title { font-family: Arial, sans-serif; font-size: 24px; font-weight: bold; text-anchor: middle; fill: #2c3e50; }
      .subtitle { font-family: Arial, sans-serif; font-size: 16px; text-anchor: middle; fill: #34495e; }
      .class-box { fill: #ecf0f1; stroke: #34495e; stroke-width: 2; }
      .class-header { fill: #3498db; stroke: #2980b9; stroke-width: 1; }
      .class-name { font-family: Arial, sans-serif; font-size: 14px; font-weight: bold; text-anchor: middle; fill: white; }
      .attribute { font-family: Arial, sans-serif; font-size: 11px; fill: #2c3e50; }
      .method { font-family: Arial, sans-serif; font-size: 11px; fill: #2c3e50; }
      .relationship { stroke: #34495e; stroke-width: 1.5; fill: none; }
      .composition { stroke: #e74c3c; stroke-width: 2; fill: none; }
      .inheritance { stroke: #9b59b6; stroke-width: 2; fill: none; }
      .dependency { stroke: #f39c12; stroke-width: 1.5; fill: none; stroke-dasharray: 5,5; }
    </style>
  </defs>
  
  <!-- Title -->
  <text x="500" y="30" class="title">DIAGRAM CLASS - DOMAIN AUTENTIKASI</text>
  <text x="500" y="55" class="subtitle">Sistem Manajemen Data Kesehatan Akudihatinya</text>
  
  <!-- User Class -->
  <g id="user-class">
    <rect x="50" y="100" width="200" height="200" class="class-box"/>
    <rect x="50" y="100" width="200" height="30" class="class-header"/>
    <text x="150" y="120" class="class-name">User</text>
    
    <!-- Attributes -->
    <text x="60" y="145" class="attribute">- id: int</text>
    <text x="60" y="160" class="attribute">- username: string</text>
    <text x="60" y="175" class="attribute">- password: string</text>
    <text x="60" y="190" class="attribute">- name: string</text>
    <text x="60" y="205" class="attribute">- profile_picture: string</text>
    <text x="60" y="220" class="attribute">- role: enum</text>
    <text x="60" y="235" class="attribute">- puskesmas_id: int</text>
    
    <!-- Methods -->
    <line x1="50" y1="245" x2="250" y2="245" stroke="#34495e" stroke-width="1"/>
    <text x="60" y="260" class="method">+ login(credentials): Token</text>
    <text x="60" y="275" class="method">+ logout(): boolean</text>
    <text x="60" y="290" class="method">+ updateProfile(data): User</text>
  </g>
  
  <!-- UserRefreshToken Class -->
  <g id="refresh-token-class">
    <rect x="350" y="100" width="200" height="150" class="class-box"/>
    <rect x="350" y="100" width="200" height="30" class="class-header"/>
    <text x="450" y="120" class="class-name">UserRefreshToken</text>
    
    <!-- Attributes -->
    <text x="360" y="145" class="attribute">- id: int</text>
    <text x="360" y="160" class="attribute">- user_id: int</text>
    <text x="360" y="175" class="attribute">- token: string</text>
    <text x="360" y="190" class="attribute">- expires_at: datetime</text>
    
    <!-- Methods -->
    <line x1="350" y1="200" x2="550" y2="200" stroke="#34495e" stroke-width="1"/>
    <text x="360" y="215" class="method">+ isValid(): boolean</text>
    <text x="360" y="230" class="method">+ refresh(): Token</text>
    <text x="360" y="245" class="method">+ revoke(): boolean</text>
  </g>
  
  <!-- AuthController Class -->
  <g id="auth-controller-class">
    <rect x="650" y="100" width="250" height="200" class="class-box"/>
    <rect x="650" y="100" width="250" height="30" class="class-header"/>
    <text x="775" y="120" class="class-name">AuthController</text>
    
    <!-- Methods -->
    <text x="660" y="150" class="method">+ login(request): JsonResponse</text>
    <text x="660" y="165" class="method">+ logout(request): JsonResponse</text>
    <text x="660" y="180" class="method">+ refresh(request): JsonResponse</text>
    <text x="660" y="195" class="method">+ changePassword(request): JsonResponse</text>
    <text x="660" y="210" class="method">+ updateProfile(request): JsonResponse</text>
    <text x="660" y="225" class="method">+ getProfile(request): JsonResponse</text>
    <text x="660" y="240" class="method">- validateCredentials(data): boolean</text>
    <text x="660" y="255" class="method">- generateTokens(user): array</text>
    <text x="660" y="270" class="method">- hashPassword(password): string</text>
    <text x="660" y="285" class="method">- verifyPassword(plain, hash): boolean</text>
  </g>
  
  <!-- AuthMiddleware Class -->
  <g id="auth-middleware-class">
    <rect x="350" y="350" width="200" height="120" class="class-box"/>
    <rect x="350" y="350" width="200" height="30" class="class-header"/>
    <text x="450" y="370" class="class-name">AuthMiddleware</text>
    
    <!-- Methods -->
    <text x="360" y="395" class="method">+ handle(request): Response</text>
    <text x="360" y="410" class="method">- validateToken(token): boolean</text>
    <text x="360" y="425" class="method">- getUserFromToken(token): User</text>
    <text x="360" y="440" class="method">- isTokenExpired(token): boolean</text>
    <text x="360" y="455" class="method">- unauthorizedResponse(): Response</text>
  </g>
  
  <!-- TokenService Class -->
  <g id="token-service-class">
    <rect x="50" y="400" width="200" height="150" class="class-box"/>
    <rect x="50" y="400" width="200" height="30" class="class-header"/>
    <text x="150" y="420" class="class-name">TokenService</text>
    
    <!-- Methods -->
    <text x="60" y="445" class="method">+ generateAccessToken(user): string</text>
    <text x="60" y="460" class="method">+ generateRefreshToken(user): string</text>
    <text x="60" y="475" class="method">+ validateToken(token): boolean</text>
    <text x="60" y="490" class="method">+ refreshAccessToken(refresh): string</text>
    <text x="60" y="505" class="method">+ revokeToken(token): boolean</text>
    <text x="60" y="520" class="method">+ getTokenPayload(token): array</text>
    <text x="60" y="535" class="method">- encryptToken(payload): string</text>
  </g>
  
  <!-- Puskesmas Class -->
  <g id="puskesmas-class">
    <rect x="650" y="400" width="200" height="120" class="class-box"/>
    <rect x="650" y="400" width="200" height="30" class="class-header"/>
    <text x="750" y="420" class="class-name">Puskesmas</text>
    
    <!-- Attributes -->
    <text x="660" y="445" class="attribute">- id: int</text>
    <text x="660" y="460" class="attribute">- name: string</text>
    
    <!-- Methods -->
    <line x1="650" y1="470" x2="850" y2="470" stroke="#34495e" stroke-width="1"/>
    <text x="660" y="485" class="method">+ getUsers(): Collection</text>
    <text x="660" y="500" class="method">+ getName(): string</text>
    <text x="660" y="515" class="method">+ setName(name): void</text>
  </g>
  
  <!-- Relationships -->
  <!-- User to UserRefreshToken (1:many) -->
  <line x1="250" y1="150" x2="350" y2="150" class="relationship"/>
  <text x="290" y="145" class="attribute">1</text>
  <text x="330" y="145" class="attribute">*</text>
  
  <!-- User to Puskesmas (many:1) -->
  <line x1="250" y1="250" x2="650" y2="450" class="relationship"/>
  <text x="260" y="270" class="attribute">*</text>
  <text x="630" y="445" class="attribute">1</text>
  
  <!-- AuthController uses User (dependency) -->
  <line x1="650" y1="180" x2="250" y2="180" class="dependency"/>
  
  <!-- AuthController uses TokenService (dependency) -->
  <line x1="650" y1="250" x2="250" y2="480" class="dependency"/>
  
  <!-- AuthMiddleware uses TokenService (dependency) -->
  <line x1="350" y1="420" x2="250" y2="480" class="dependency"/>
  
  <!-- TokenService uses UserRefreshToken (dependency) -->
  <line x1="250" y1="450" x2="350" y2="200" class="dependency"/>
  
  <!-- Legend -->
  <g id="legend">
    <text x="50" y="600" class="class-name">Legenda:</text>
    <line x1="50" y1="620" x2="100" y2="620" class="relationship"/>
    <text x="110" y="625" class="attribute">Asosiasi</text>
    <line x1="50" y1="640" x2="100" y2="640" class="dependency"/>
    <text x="110" y="645" class="attribute">Dependensi</text>
  </g>
  
</svg>