<?xml version="1.0" encoding="UTF-8"?>
<svg xmlns="http://www.w3.org/2000/svg" viewBox="0 0 1000 600">
  <defs>
    <style>
      .title { font-family: Arial, sans-serif; font-size: 28px; font-weight: bold; text-anchor: middle; fill: #2c3e50; }
      .subtitle { font-family: Arial, sans-serif; font-size: 18px; text-anchor: middle; fill: #34495e; }
      .actor { fill: #3498db; stroke: #2980b9; stroke-width: 2; }
      .actor-text { font-family: Arial, sans-serif; font-size: 13px; text-anchor: middle; fill: #2c3e50; font-weight: bold; }
      .usecase { fill: #e8f4fd; stroke: #3498db; stroke-width: 2; }
      .usecase-text { font-family: Arial, sans-serif; font-size: 12px; text-anchor: middle; fill: #2c3e50; font-weight: bold; }
      .system-boundary { fill: none; stroke: #7f8c8d; stroke-width: 2; stroke-dasharray: 5,5; }
      .system-label { font-family: Arial, sans-serif; font-size: 16px; font-weight: bold; fill: #7f8c8d; }
      .connection { stroke: #34495e; stroke-width: 2; fill: none; }
    </style>
  </defs>
  
  <!-- Title -->
  <text x="500" y="35" class="title">DIAGRAM USE CASE - DOMAIN AUTENTIKASI</text>
  <text x="500" y="60" class="subtitle">Sistem Manajemen Data Kesehatan Akudihatinya</text>
  
  <!-- System Boundary -->
  <rect x="250" y="100" width="500" height="450" class="system-boundary" rx="10"/>
  <text x="260" y="125" class="system-label">Sistem Autentikasi Akudihatinya</text>
  
  <!-- Actors -->
  <!-- Admin (Kiri) -->
  <g id="admin">
    <ellipse cx="120" cy="280" rx="18" ry="30" class="actor"/>
    <line x1="120" y1="310" x2="120" y2="360" stroke="#3498db" stroke-width="3"/>
    <line x1="120" y1="330" x2="95" y2="355" stroke="#3498db" stroke-width="3"/>
    <line x1="120" y1="330" x2="145" y2="355" stroke="#3498db" stroke-width="3"/>
    <line x1="120" y1="360" x2="100" y2="385" stroke="#3498db" stroke-width="3"/>
    <line x1="120" y1="360" x2="140" y2="385" stroke="#3498db" stroke-width="3"/>
    <text x="120" y="405" class="actor-text">Admin</text>
    <text x="120" y="420" class="actor-text">(Dinas Kesehatan)</text>
  </g>
  
  <!-- Petugas Puskesmas (Kanan) -->
  <g id="petugas">
    <ellipse cx="880" cy="280" rx="18" ry="30" class="actor"/>
    <line x1="880" y1="310" x2="880" y2="360" stroke="#3498db" stroke-width="3"/>
    <line x1="880" y1="330" x2="855" y2="355" stroke="#3498db" stroke-width="3"/>
    <line x1="880" y1="330" x2="905" y2="355" stroke="#3498db" stroke-width="3"/>
    <line x1="880" y1="360" x2="860" y2="385" stroke="#3498db" stroke-width="3"/>
    <line x1="880" y1="360" x2="900" y2="385" stroke="#3498db" stroke-width="3"/>
    <text x="880" y="405" class="actor-text">Petugas</text>
    <text x="880" y="420" class="actor-text">Puskesmas</text>
  </g>
  
  <!-- Use Cases -->
  <!-- Login -->
  <ellipse cx="400" cy="180" rx="90" ry="35" class="usecase"/>
  <text x="400" y="185" class="usecase-text">Masuk ke Sistem</text>
  
  <!-- Logout -->
  <ellipse cx="600" cy="180" rx="90" ry="35" class="usecase"/>
  <text x="600" y="185" class="usecase-text">Keluar dari Sistem</text>
  
  <!-- Refresh Token -->
  <ellipse cx="400" cy="260" rx="90" ry="35" class="usecase"/>
  <text x="400" y="265" class="usecase-text">Perbarui Token Akses</text>
  
  <!-- Change Password -->
  <ellipse cx="600" cy="260" rx="90" ry="35" class="usecase"/>
  <text x="600" y="265" class="usecase-text">Ubah Kata Sandi</text>
  
  <!-- Update Profile -->
  <ellipse cx="500" cy="340" rx="90" ry="35" class="usecase"/>
  <text x="500" y="345" class="usecase-text">Perbarui Profil</text>
  
  <!-- Connections -->
  <!-- Admin connections (dari kiri) -->
  <line x1="138" y1="280" x2="310" y2="180" class="connection"/>
  <line x1="138" y1="280" x2="510" y2="180" class="connection"/>
  <line x1="138" y1="280" x2="310" y2="260" class="connection"/>
  <line x1="138" y1="280" x2="510" y2="260" class="connection"/>
  <line x1="138" y1="280" x2="410" y2="340" class="connection"/>
  
  <!-- Petugas connections (dari kanan) -->
  <line x1="862" y1="280" x2="490" y2="180" class="connection"/>
  <line x1="862" y1="280" x2="690" y2="180" class="connection"/>
  <line x1="862" y1="280" x2="490" y2="260" class="connection"/>
  <line x1="862" y1="280" x2="690" y2="260" class="connection"/>
  <line x1="862" y1="280" x2="590" y2="340" class="connection"/>
  
</svg>