<?xml version="1.0" encoding="UTF-8"?>
<svg xmlns="http://www.w3.org/2000/svg" viewBox="0 0 1200 900">
  <defs>
    <style>
      .title { font-family: Arial, sans-serif; font-size: 24px; font-weight: bold; text-anchor: middle; fill: #2c3e50; }
      .subtitle { font-family: Arial, sans-serif; font-size: 16px; text-anchor: middle; fill: #34495e; }
      .start-end { fill: #2c3e50; stroke: #2c3e50; stroke-width: 2; }
      .activity { fill: #3498db; stroke: #2980b9; stroke-width: 2; rx: 20; ry: 20; }
      .decision { fill: #f39c12; stroke: #e67e22; stroke-width: 2; }
      .activity-text { font-family: Arial, sans-serif; font-size: 11px; text-anchor: middle; fill: white; font-weight: bold; }
      .decision-text { font-family: Arial, sans-serif; font-size: 10px; text-anchor: middle; fill: white; font-weight: bold; }
      .flow { stroke: #34495e; stroke-width: 2; fill: none; marker-end: url(#arrowhead); }
      .flow-label { font-family: Arial, sans-serif; font-size: 10px; fill: #2c3e50; font-weight: bold; }
      .swimlane { fill: none; stroke: #bdc3c7; stroke-width: 1; stroke-dasharray: 5,5; }
      .swimlane-label { font-family: Arial, sans-serif; font-size: 14px; font-weight: bold; fill: #7f8c8d; }
    </style>
    <defs>
      <marker id="arrowhead" markerWidth="10" markerHeight="7" refX="9" refY="3.5" orient="auto">
        <polygon points="0 0, 10 3.5, 0 7" fill="#34495e"/>
      </marker>
    </defs>
  </defs>
  
  <!-- Title -->
  <text x="600" y="30" class="title">DIAGRAM ACTIVITY - PROSES PEMERIKSAAN DIABETES MELLITUS</text>
  <text x="600" y="55" class="subtitle">Sistem Manajemen Data Kesehatan Akudihatinya</text>
  
  <!-- Swimlanes -->
  <rect x="50" y="80" width="200" height="780" class="swimlane"/>
  <text x="150" y="100" class="swimlane-label">Petugas Puskesmas</text>
  
  <rect x="250" y="80" width="250" height="780" class="swimlane"/>
  <text x="375" y="100" class="swimlane-label">Sistem Pemeriksaan DM</text>
  
  <rect x="500" y="80" width="200" height="780" class="swimlane"/>
  <text x="600" y="100" class="swimlane-label">Database</text>
  
  <rect x="700" y="80" width="250" height="780" class="swimlane"/>
  <text x="825" y="100" class="swimlane-label">Analisis Service</text>
  
  <!-- Start -->
  <circle cx="150" cy="130" r="15" class="start-end"/>
  <text x="150" y="155" class="activity-text">Mulai</text>
  
  <!-- User Activities -->
  <rect x="100" y="180" width="100" height="40" class="activity"/>
  <text x="150" y="195" class="activity-text">Pilih Pasien</text>
  <text x="150" y="210" class="activity-text">untuk Periksa</text>
  
  <rect x="100" y="260" width="100" height="40" class="activity"/>
  <text x="150" y="275" class="activity-text">Pilih Jenis</text>
  <text x="150" y="290" class="activity-text">Pemeriksaan</text>
  
  <rect x="100" y="380" width="100" height="40" class="activity"/>
  <text x="150" y="395" class="activity-text">Input Hasil</text>
  <text x="150" y="410" class="activity-text">Lab</text>
  
  <rect x="100" y="460" width="100" height="40" class="activity"/>
  <text x="150" y="475" class="activity-text">Submit</text>
  <text x="150" y="490" class="activity-text">Data</text>
  
  <!-- Decision Point for Examination Type -->
  <polygon points="150,340 180,360 150,380 120,360" class="decision"/>
  <text x="150" y="365" class="decision-text">HbA1c/GDP?</text>
  
  <!-- System Activities -->
  <rect x="300" y="460" width="100" height="40" class="activity"/>
  <text x="350" y="475" class="activity-text">Terima</text>
  <text x="350" y="490" class="activity-text">Data DM</text>
  
  <rect x="300" y="540" width="100" height="40" class="activity"/>
  <text x="350" y="555" class="activity-text">Validasi</text>
  <text x="350" y="570" class="activity-text">Input</text>
  
  <!-- Analysis Service Activities -->
  <rect x="750" y="620" width="150" height="40" class="activity"/>
  <text x="825" y="635" class="activity-text">Analisis Nilai</text>
  <text x="825" y="650" class="activity-text">Gula Darah</text>
  
  <rect x="750" y="700" width="150" height="40" class="activity"/>
  <text x="825" y="715" class="activity-text">Tentukan Status</text>
  <text x="825" y="730" class="activity-text">Diabetes</text>
  
  <rect x="750" y="780" width="150" height="40" class="activity"/>
  <text x="825" y="795" class="activity-text">Generate</text>
  <text x="825" y="810" class="activity-text">Rekomendasi</text>
  
  <!-- Decision Points -->
  <polygon points="350,620 380,640 350,660 320,640" class="decision"/>
  <text x="350" y="645" class="decision-text">Valid?</text>
  
  <!-- Database Activities -->
  <rect x="550" y="820" width="100" height="40" class="activity"/>
  <text x="600" y="835" class="activity-text">Simpan Data</text>
  <text x="600" y="850" class="activity-text">Pemeriksaan</text>
  
  <!-- Success Response -->
  <rect x="300" y="820" width="100" height="40" class="activity"/>
  <text x="350" y="835" class="activity-text">Kirim Response</text>
  <text x="350" y="850" class="activity-text">dengan Status</text>
  
  <rect x="100" y="820" width="100" height="40" class="activity"/>
  <text x="150" y="835" class="activity-text">Tampilkan</text>
  <text x="150" y="850" class="activity-text">Hasil &amp; Status</text>
  
  <!-- Error Response -->
  <rect x="100" y="660" width="100" height="40" class="activity"/>
  <text x="150" y="675" class="activity-text">Tampilkan</text>
  <text x="150" y="690" class="activity-text">Error</text>
  
  <!-- End -->
  <circle cx="150" cy="730" r="15" class="start-end"/>
  <circle cx="150" cy="730" r="10" fill="white"/>
  
  <circle cx="150" cy="880" r="15" class="start-end"/>
  <circle cx="150" cy="880" r="10" fill="white"/>
  
  <!-- Flows -->
  <line x1="150" y1="145" x2="150" y2="180" class="flow"/>
  <line x1="150" y1="220" x2="150" y2="260" class="flow"/>
  <line x1="150" y1="300" x2="150" y2="340" class="flow"/>
  
  <!-- Decision flows -->
  <line x1="150" y1="380" x2="150" y2="460" class="flow"/>
  <text x="160" y="420" class="flow-label">HbA1c/GDP</text>
  
  <line x1="150" y1="500" x2="350" y2="480" class="flow"/>
  <line x1="350" y1="500" x2="350" y2="540" class="flow"/>
  <line x1="350" y1="580" x2="350" y2="620" class="flow"/>
  
  <line x1="380" y1="640" x2="750" y2="640" class="flow"/>
  <text x="550" y="635" class="flow-label">Ya</text>
  
  <line x1="825" y1="660" x2="825" y2="700" class="flow"/>
  <line x1="825" y1="740" x2="825" y2="780" class="flow"/>
  <line x1="750" y1="800" x2="600" y2="820" class="flow"/>
  <line x1="600" y1="860" x2="350" y2="840" class="flow"/>
  <line x1="300" y1="840" x2="150" y2="840" class="flow"/>
  <line x1="150" y1="860" x2="150" y2="880" class="flow"/>
  
  <!-- Error Flows -->
  <line x1="320" y1="640" x2="150" y2="660" class="flow"/>
  <text x="220" y="635" class="flow-label">Tidak</text>
  
  <line x1="150" y1="700" x2="150" y2="730" class="flow"/>
  
</svg>