<?xml version="1.0" encoding="UTF-8"?>
<svg xmlns="http://www.w3.org/2000/svg" viewBox="0 0 1200 800">
  <defs>
    <style>
      .title { font-family: Arial, sans-serif; font-size: 24px; font-weight: bold; text-anchor: middle; fill: #2c3e50; }
      .subtitle { font-family: Arial, sans-serif; font-size: 16px; text-anchor: middle; fill: #34495e; }
      .class-box { fill: #ecf0f1; stroke: #34495e; stroke-width: 2; }
      .class-header { fill: #8e44ad; stroke: #7d3c98; stroke-width: 1; }
      .class-name { font-family: Arial, sans-serif; font-size: 14px; font-weight: bold; text-anchor: middle; fill: white; }
      .attribute { font-family: Arial, sans-serif; font-size: 10px; fill: #2c3e50; }
      .method { font-family: Arial, sans-serif; font-size: 10px; fill: #2c3e50; }
      .relationship { stroke: #34495e; stroke-width: 1.5; fill: none; }
      .composition { stroke: #e74c3c; stroke-width: 2; fill: none; }
      .inheritance { stroke: #9b59b6; stroke-width: 2; fill: none; }
      .dependency { stroke: #f39c12; stroke-width: 1.5; fill: none; stroke-dasharray: 5,5; }
    </style>
  </defs>
  
  <!-- Title -->
  <text x="600" y="30" class="title">DIAGRAM CLASS - DOMAIN PEMERIKSAAN DIABETES MELLITUS</text>
  <text x="600" y="55" class="subtitle">Sistem Manajemen Data Kesehatan Akudihatinya</text>
  
  <!-- DmExamination Class -->
  <g id="dm-examination-class">
    <rect x="50" y="100" width="280" height="320" class="class-box"/>
    <rect x="50" y="100" width="280" height="30" class="class-header"/>
    <text x="190" y="120" class="class-name">DmExamination</text>
    
    <!-- Attributes -->
    <text x="60" y="140" class="attribute">- id: int</text>
    <text x="60" y="155" class="attribute">- patient_id: int</text>
    <text x="60" y="170" class="attribute">- examination_date: date</text>
    <text x="60" y="185" class="attribute">- examination_type: enum (hba1c/gdp)</text>
    <text x="60" y="200" class="attribute">- hba1c_value: decimal (nullable)</text>
    <text x="60" y="215" class="attribute">- fasting_blood_sugar: int (nullable)</text>
    <text x="60" y="230" class="attribute">- dm_status: enum</text>
    <text x="60" y="245" class="attribute">- is_controlled: boolean</text>
    <text x="60" y="260" class="attribute">- recommendations: text</text>
    <text x="60" y="275" class="attribute">- notes: text</text>
    <text x="60" y="290" class="attribute">- created_at: timestamp</text>
    <text x="60" y="305" class="attribute">- updated_at: timestamp</text>
    
    <!-- Methods -->
    <line x1="50" y1="315" x2="330" y2="315" stroke="#34495e" stroke-width="1"/>
    <text x="60" y="330" class="method">+ calculateDMStatus(): string</text>
    <text x="60" y="345" class="method">+ isControlled(): boolean</text>
    <text x="60" y="360" class="method">+ getExaminationType(): string</text>
    <text x="60" y="375" class="method">+ getExaminationValue(): float</text>
    <text x="60" y="390" class="method">+ generateRecommendations(): string</text>
    <text x="60" y="405" class="method">+ patient(): BelongsTo</text>
  </g>
  
  <!-- DMController Class -->
  <g id="dm-controller-class">
    <rect x="400" y="100" width="300" height="270" class="class-box"/>
    <rect x="400" y="100" width="300" height="30" class="class-header"/>
    <text x="550" y="120" class="class-name">DMController</text>
    
    <!-- Methods -->
    <text x="410" y="145" class="method">+ index(request): JsonResponse</text>
    <text x="410" y="160" class="method">+ store(request): JsonResponse</text>
    <text x="410" y="175" class="method">+ show(id): JsonResponse</text>
    <text x="410" y="190" class="method">+ update(request, id): JsonResponse</text>
    <text x="410" y="205" class="method">+ destroy(id): JsonResponse</text>
    <text x="410" y="220" class="method">+ getPatientHistory(patientId): JsonResponse</text>
    <text x="410" y="235" class="method">+ generateReport(request): JsonResponse</text>
    <text x="410" y="250" class="method">- validateDMData(data): array</text>
    <text x="410" y="265" class="method">- analyzeBloodSugar(type, value): array</text>
    <text x="410" y="280" class="method">- updatePatientDMStatus(patient): void</text>
    <text x="410" y="295" class="method">- formatDMResponse(examination): array</text>
    <text x="410" y="310" class="method">- validateExaminationType(type): boolean</text>
    <text x="410" y="325" class="method">- generateDMRecommendations(status): string</text>
    <text x="410" y="340" class="method">- calculateControlledStatus(type, value): boolean</text>
    <text x="410" y="355" class="method">- determineExaminationValue(data): float</text>
  </g>
  
  <!-- DMRequest Class -->
  <g id="dm-request-class">
    <rect x="800" y="100" width="250" height="200" class="class-box"/>
    <rect x="800" y="100" width="250" height="30" class="class-header"/>
    <text x="925" y="120" class="class-name">DMRequest</text>
    
    <!-- Methods -->
    <text x="810" y="145" class="method">+ authorize(): boolean</text>
    <text x="810" y="160" class="method">+ rules(): array</text>
    <text x="810" y="175" class="method">+ messages(): array</text>
    <text x="810" y="190" class="method">- hba1cValidationRules(): array</text>
    <text x="810" y="205" class="method">- fastingBloodSugarRules(): array</text>
    <text x="810" y="220" class="method">- examinationTypeRules(): array</text>
    <text x="810" y="235" class="method">- dateValidationRules(): array</text>
    <text x="810" y="250" class="method">- patientValidationRules(): array</text>
    <text x="810" y="265" class="method">- customValidationMessages(): array</text>
    <text x="810" y="280" class="method">- valueRangeValidation(): array</text>
    <text x="810" y="295" class="method">- conditionalValidation(): array</text>
  </g>
  
  <!-- DMResource Class -->
  <g id="dm-resource-class">
    <rect x="400" y="420" width="250" height="150" class="class-box"/>
    <rect x="400" y="420" width="250" height="30" class="class-header"/>
    <text x="525" y="440" class="class-name">DMResource</text>
    
    <!-- Methods -->
    <text x="410" y="465" class="method">+ toArray(request): array</text>
    <text x="410" y="480" class="method">- formatExaminationData(): array</text>
    <text x="410" y="495" class="method">- formatBloodSugarInfo(): array</text>
    <text x="410" y="510" class="method">- formatStatusInfo(): array</text>
    <text x="410" y="525" class="method">- formatPatientInfo(): array</text>
    <text x="410" y="540" class="method">- formatRecommendations(): array</text>
    <text x="410" y="555" class="method">- hidePrivateFields(): array</text>
  </g>
  
  <!-- Patient Class -->
  <g id="patient-class">
    <rect x="50" y="470" width="200" height="120" class="class-box"/>
    <rect x="50" y="470" width="200" height="30" class="class-header"/>
    <text x="150" y="490" class="class-name">Patient</text>
    
    <!-- Attributes -->
    <text x="60" y="510" class="attribute">- id: int</text>
    <text x="60" y="525" class="attribute">- name: string</text>
    <text x="60" y="540" class="attribute">- has_dm: boolean</text>
    
    <!-- Methods -->
    <line x1="50" y1="550" x2="250" y2="550" stroke="#34495e" stroke-width="1"/>
    <text x="60" y="565" class="method">+ dmExaminations(): HasMany</text>
    <text x="60" y="580" class="method">+ updateDMStatus(): void</text>
  </g>
  
  <!-- DMAnalysisService Class -->
  <g id="dm-analysis-service-class">
    <rect x="800" y="350" width="250" height="220" class="class-box"/>
    <rect x="800" y="350" width="250" height="30" class="class-header"/>
    <text x="925" y="370" class="class-name">DMAnalysisService</text>
    
    <!-- Methods -->
    <text x="810" y="395" class="method">+ analyzeBloodSugar(type, value): array</text>
    <text x="810" y="410" class="method">+ calculateDMStatus(type, value): string</text>
    <text x="810" y="425" class="method">+ determineControlledStatus(type, value): boolean</text>
    <text x="810" y="440" class="method">+ generateRecommendations(status): string</text>
    <text x="810" y="455" class="method">+ validateExaminationValue(type, value): boolean</text>
    <text x="810" y="470" class="method">- applyHbA1cStandards(value): string</text>
    <text x="810" y="485" class="method">- applyFastingBloodSugarStandards(value): string</text>
    <text x="810" y="500" class="method">- determineExaminationType(data): string</text>
    <text x="810" y="515" class="method">- getLifestyleRecommendations(status): array</text>
    <text x="810" y="530" class="method">- getMedicationRecommendations(status): array</text>
    <text x="810" y="545" class="method">- getDietaryRecommendations(status): array</text>
    <text x="810" y="560" class="method">- getMonitoringRecommendations(status): array</text>
  </g>
  
  <!-- DMConstants Class -->
  <g id="dm-constants-class">
    <rect x="800" y="620" width="250" height="150" class="class-box"/>
    <rect x="800" y="620" width="250" height="30" class="class-header"/>
    <text x="925" y="640" class="class-name">DMConstants</text>
    
    <!-- Constants -->
    <text x="810" y="660" class="attribute">+ NORMAL_HBA1C_MAX: float = 7.0</text>
    <text x="810" y="675" class="attribute">+ NORMAL_FASTING_MAX: int = 100</text>
    <text x="810" y="690" class="attribute">+ PREDIABETES_FASTING_MAX: int = 125</text>
    <text x="810" y="705" class="attribute">+ DIABETES_FASTING_MIN: int = 126</text>
    <text x="810" y="720" class="attribute">+ EXAMINATION_TYPES: array</text>
    <text x="810" y="735" class="attribute">+ DM_STATUS_OPTIONS: array</text>
    <text x="810" y="750" class="attribute">+ CONTROLLED_THRESHOLDS: array</text>
  </g>
  
  <!-- Relationships -->
  <!-- DmExamination to Patient (many:1) -->
  <line x1="150" y1="420" x2="150" y2="470" class="relationship"/>
  <text x="130" y="440" class="attribute">*</text>
  <text x="130" y="460" class="attribute">1</text>
  
  <!-- DMController uses DmExamination (dependency) -->
  <line x1="400" y1="200" x2="330" y2="200" class="dependency"/>
  
  <!-- DMController uses DMRequest (dependency) -->
  <line x1="700" y1="180" x2="800" y2="180" class="dependency"/>
  
  <!-- DMController uses DMResource (dependency) -->
  <line x1="550" y1="370" x2="550" y2="420" class="dependency"/>
  
  <!-- DMController uses DMAnalysisService (dependency) -->
  <line x1="700" y1="250" x2="800" y2="420" class="dependency"/>
  
  <!-- DMRequest uses DMConstants (dependency) -->
  <line x1="925" y1="300" x2="925" y2="620" class="dependency"/>
  
  <!-- DMAnalysisService uses DMConstants (dependency) -->
  <line x1="925" y1="570" x2="925" y2="620" class="dependency"/>
  
  <!-- Legend -->
  <g id="legend">
    <text x="50" y="640" class="class-name">Legenda:</text>
    <line x1="50" y1="660" x2="100" y2="660" class="relationship"/>
    <text x="110" y="665" class="attribute">Asosiasi</text>
    <line x1="50" y1="680" x2="100" y2="680" class="dependency"/>
    <text x="110" y="685" class="attribute">Dependensi</text>
  </g>
  
</svg>