<?xml version="1.0" encoding="UTF-8"?>
<svg xmlns="http://www.w3.org/2000/svg" viewBox="0 0 1200 800">
  <defs>
    <style>
      .title { font-family: Arial, sans-serif; font-size: 24px; font-weight: bold; text-anchor: middle; fill: #2c3e50; }
      .subtitle { font-family: Arial, sans-serif; font-size: 16px; text-anchor: middle; fill: #34495e; }
      .actor-box { fill: #3498db; stroke: #2980b9; stroke-width: 2; rx: 5; ry: 5; }
      .actor-text { font-family: Arial, sans-serif; font-size: 12px; text-anchor: middle; fill: white; font-weight: bold; }
      .lifeline { stroke: #bdc3c7; stroke-width: 2; stroke-dasharray: 5,5; }
      .activation { fill: #ecf0f1; stroke: #bdc3c7; stroke-width: 1; }
      .message { stroke: #2c3e50; stroke-width: 2; fill: none; marker-end: url(#arrowhead); }
      .return-message { stroke: #27ae60; stroke-width: 2; fill: none; marker-end: url(#arrowhead); stroke-dasharray: 5,5; }
      .message-text { font-family: Arial, sans-serif; font-size: 11px; fill: #2c3e50; font-weight: bold; }
      .note { fill: #f39c12; stroke: #e67e22; stroke-width: 1; rx: 5; ry: 5; }
      .note-text { font-family: Arial, sans-serif; font-size: 10px; fill: white; font-weight: bold; }
    </style>
    <defs>
      <marker id="arrowhead" markerWidth="10" markerHeight="7" refX="9" refY="3.5" orient="auto">
        <polygon points="0 0, 10 3.5, 0 7" fill="#2c3e50"/>
      </marker>
    </defs>
  </defs>
  
  <!-- Title -->
  <text x="600" y="30" class="title">DIAGRAM SEQUENCE - PROSES PENDAFTARAN PASIEN BARU</text>
  <text x="600" y="55" class="subtitle">Sistem Manajemen Data Kesehatan Akudihatinya</text>
  
  <!-- Actors -->
  <rect x="80" y="80" width="120" height="40" class="actor-box"/>
  <text x="140" y="105" class="actor-text">Petugas Puskesmas</text>
  
  <rect x="280" y="80" width="120" height="40" class="actor-box"/>
  <text x="340" y="105" class="actor-text">PatientController</text>
  
  <rect x="480" y="80" width="120" height="40" class="actor-box"/>
  <text x="540" y="105" class="actor-text">ValidationService</text>
  
  <rect x="680" y="80" width="120" height="40" class="actor-box"/>
  <text x="740" y="105" class="actor-text">Database</text>
  
  <rect x="880" y="80" width="120" height="40" class="actor-box"/>
  <text x="940" y="105" class="actor-text">PatientResource</text>
  
  <!-- Lifelines -->
  <line x1="140" y1="120" x2="140" y2="750" class="lifeline"/>
  <line x1="340" y1="120" x2="340" y2="750" class="lifeline"/>
  <line x1="540" y1="120" x2="540" y2="750" class="lifeline"/>
  <line x1="740" y1="120" x2="740" y2="750" class="lifeline"/>
  <line x1="940" y1="120" x2="940" y2="750" class="lifeline"/>
  
  <!-- Activations -->
  <rect x="335" y="160" width="10" height="500" class="activation"/>
  <rect x="535" y="200" width="10" height="160" class="activation"/>
  <rect x="735" y="280" width="10" height="200" class="activation"/>
  <rect x="935" y="520" width="10" height="80" class="activation"/>
  
  <!-- Messages -->
  <!-- 1. Create Patient Request -->
  <line x1="140" y1="160" x2="335" y2="160" class="message"/>
  <text x="220" y="155" class="message-text">1: POST /patients</text>
  <text x="220" y="175" class="message-text">{patientData}</text>
  
  <!-- 2. Validate Input -->
  <line x1="340" y1="200" x2="535" y2="200" class="message"/>
  <text x="420" y="195" class="message-text">2: validatePatientData()</text>
  
  <!-- 3. Validate NIK -->
  <rect x="530" y="220" width="20" height="20" class="activation"/>
  <text x="560" y="235" class="message-text">3: validateNIK()</text>
  
  <!-- 4. Validate Phone -->
  <text x="560" y="255" class="message-text">4: validatePhone()</text>
  
  <!-- 5. Check Duplicates -->
  <line x1="540" y1="280" x2="735" y2="280" class="message"/>
  <text x="620" y="275" class="message-text">5: checkDuplicatePatient()</text>
  
  <!-- 6. Search by NIK -->
  <rect x="730" y="300" width="20" height="20" class="activation"/>
  <text x="760" y="315" class="message-text">6: findByNIK()</text>
  
  <!-- 7. Search by Phone -->
  <text x="760" y="335" class="message-text">7: findByPhone()</text>
  
  <!-- 8. Duplicate Check Result -->
  <line x1="735" y1="360" x2="545" y2="360" class="return-message"/>
  <text x="620" y="355" class="message-text">8: no duplicates found</text>
  
  <!-- 9. Validation Result -->
  <line x1="535" y1="400" x2="345" y2="400" class="return-message"/>
  <text x="420" y="395" class="message-text">9: validation passed</text>
  
  <!-- 10. Save Patient -->
  <line x1="340" y1="440" x2="735" y2="440" class="message"/>
  <text x="520" y="435" class="message-text">10: createPatient(data)</text>
  
  <!-- 11. Generate Patient ID -->
  <rect x="730" y="460" width="20" height="20" class="activation"/>
  <text x="760" y="475" class="message-text">11: generatePatientID()</text>
  
  <!-- 12. Insert to Database -->
  <text x="760" y="495" class="message-text">12: insert patient record</text>
  
  <!-- 13. Patient Created -->
  <line x1="735" y1="520" x2="345" y2="520" class="return-message"/>
  <text x="520" y="515" class="message-text">13: patient created</text>
  
  <!-- 14. Format Response -->
  <line x1="340" y1="560" x2="935" y2="560" class="message"/>
  <text x="620" y="555" class="message-text">14: formatPatientResource()</text>
  
  <!-- 15. Formatted Data -->
  <line x1="935" y1="600" x2="345" y2="600" class="return-message"/>
  <text x="620" y="595" class="message-text">15: formatted patient data</text>
  
  <!-- 16. Success Response -->
  <line x1="335" y1="640" x2="140" y2="640" class="return-message"/>
  <text x="220" y="635" class="message-text">16: 201 Created</text>
  <text x="220" y="655" class="message-text">{patient}</text>
  
  <!-- Notes -->
  <rect x="50" y="680" width="200" height="60" class="note"/>
  <text x="150" y="700" class="note-text">Validasi:</text>
  <text x="150" y="715" class="note-text">- NIK harus 16 digit</text>
  <text x="150" y="730" class="note-text">- No. telepon format Indonesia</text>
  
  <rect x="300" y="680" width="200" height="60" class="note"/>
  <text x="400" y="700" class="note-text">Error Handling:</text>
  <text x="400" y="715" class="note-text">- 422: Data tidak valid</text>
  <text x="400" y="730" class="note-text">- 409: Data duplikat</text>
  
</svg>