<?xml version="1.0" encoding="UTF-8"?>
<svg xmlns="http://www.w3.org/2000/svg" viewBox="0 0 1200 800">
  <defs>
    <style>
      .title { font-family: Arial, sans-serif; font-size: 24px; font-weight: bold; text-anchor: middle; fill: #2c3e50; }
      .subtitle { font-family: Arial, sans-serif; font-size: 16px; text-anchor: middle; fill: #34495e; }
      .actor-box { fill: #3498db; stroke: #2980b9; stroke-width: 2; rx: 5; ry: 5; }
      .actor-text { font-family: Arial, sans-serif; font-size: 12px; text-anchor: middle; fill: white; font-weight: bold; }
      .lifeline { stroke: #bdc3c7; stroke-width: 2; stroke-dasharray: 5,5; }
      .activation { fill: #ecf0f1; stroke: #bdc3c7; stroke-width: 1; }
      .message { stroke: #2c3e50; stroke-width: 2; fill: none; marker-end: url(#arrowhead); }
      .return-message { stroke: #27ae60; stroke-width: 2; fill: none; marker-end: url(#arrowhead); stroke-dasharray: 5,5; }
      .message-text { font-family: Arial, sans-serif; font-size: 11px; fill: #2c3e50; font-weight: bold; }
      .note { fill: #f39c12; stroke: #e67e22; stroke-width: 1; rx: 5; ry: 5; }
      .note-text { font-family: Arial, sans-serif; font-size: 10px; fill: white; font-weight: bold; }
    </style>
    <marker id="arrowhead" markerWidth="10" markerHeight="7" refX="9" refY="3.5" orient="auto">
      <polygon points="0 0, 10 3.5, 0 7" fill="#2c3e50"/>
    </marker>
  </defs>
  
  <!-- Title -->
  <text x="600" y="30" class="title">DIAGRAM SEQUENCE - PROSES PENETAPAN TARGET TAHUNAN</text>
  <text x="600" y="55" class="subtitle">Sistem Manajemen Data Kesehatan Akudihatinya</text>
  
  <!-- Actors -->
  <rect x="80" y="80" width="120" height="40" class="actor-box"/>
  <text x="140" y="105" class="actor-text">Admin Dinkes</text>
  
  <rect x="280" y="80" width="120" height="40" class="actor-box"/>
  <text x="340" y="105" class="actor-text">TargetController</text>
  
  <rect x="480" y="80" width="120" height="40" class="actor-box"/>
  <text x="540" y="105" class="actor-text">TargetService</text>
  
  <rect x="680" y="80" width="120" height="40" class="actor-box"/>
  <text x="740" y="105" class="actor-text">Database</text>
  
  <rect x="880" y="80" width="120" height="40" class="actor-box"/>
  <text x="940" y="105" class="actor-text">NotificationService</text>
  
  <!-- Lifelines -->
  <line x1="140" y1="120" x2="140" y2="750" class="lifeline"/>
  <line x1="340" y1="120" x2="340" y2="750" class="lifeline"/>
  <line x1="540" y1="120" x2="540" y2="750" class="lifeline"/>
  <line x1="740" y1="120" x2="740" y2="750" class="lifeline"/>
  <line x1="940" y1="120" x2="940" y2="750" class="lifeline"/>
  
  <!-- Activations -->
  <rect x="335" y="160" width="10" height="500" class="activation"/>
  <rect x="535" y="200" width="10" height="360" class="activation"/>
  <rect x="735" y="240" width="10" height="280" class="activation"/>
  <rect x="935" y="580" width="10" height="60" class="activation"/>
  
  <!-- Messages -->
  <!-- 1. Create Yearly Target -->
  <line x1="140" y1="160" x2="335" y2="160" class="message"/>
  <text x="220" y="155" class="message-text">1: POST /yearly-targets</text>
  <text x="220" y="175" class="message-text">{year, targets}</text>
  
  <!-- 2. Process Target Data -->
  <line x1="340" y1="200" x2="535" y2="200" class="message"/>
  <text x="420" y="195" class="message-text">2: processYearlyTargets(data)</text>
  
  <!-- 3. Validate Year -->
  <line x1="540" y1="240" x2="735" y2="240" class="message"/>
  <text x="620" y="235" class="message-text">3: checkExistingTargets(year)</text>
  
  <!-- 4. Year Check Result -->
  <line x1="735" y1="280" x2="545" y2="280" class="return-message"/>
  <text x="620" y="275" class="message-text">4: year available</text>
  
  <!-- 5. Get All Puskesmas -->
  <line x1="540" y1="320" x2="735" y2="320" class="message"/>
  <text x="620" y="315" class="message-text">5: getAllPuskesmas()</text>
  
  <!-- 6. Puskesmas List -->
  <line x1="735" y1="360" x2="545" y2="360" class="return-message"/>
  <text x="620" y="355" class="message-text">6: puskesmas list</text>
  
  <!-- 7. Calculate Individual Targets -->
  <rect x="530" y="380" width="20" height="20" class="activation"/>
  <text x="560" y="395" class="message-text">7: calculateTargetPerPuskesmas()</text>
  
  <!-- 8. Validate Target Values -->
  <text x="560" y="415" class="message-text">8: validateTargetValues()</text>
  
  <!-- 9. Create Target Records -->
  <line x1="540" y1="440" x2="735" y2="440" class="message"/>
  <text x="620" y="435" class="message-text">9: createYearlyTargets(targets)</text>
  
  <!-- 10. Bulk Insert -->
  <rect x="730" y="460" width="20" height="20" class="activation"/>
  <text x="760" y="475" class="message-text">10: bulkInsertTargets()</text>
  
  <!-- 11. Update Puskesmas Status -->
  <text x="760" y="495" class="message-text">11: updatePuskesmasTargets()</text>
  
  <!-- 12. Targets Created -->
  <line x1="735" y1="520" x2="545" y2="520" class="return-message"/>
  <text x="620" y="515" class="message-text">12: targets created successfully</text>
  
  <!-- 13. Send Notifications -->
  <line x1="540" y1="560" x2="935" y2="560" class="message"/>
  <text x="720" y="555" class="message-text">13: notifyPuskesmasTargets()</text>
  
  <!-- 14. Notification Sent -->
  <line x1="935" y1="600" x2="545" y2="600" class="return-message"/>
  <text x="720" y="595" class="message-text">14: notifications sent</text>
  
  <!-- 15. Service Response -->
  <line x1="535" y1="640" x2="345" y2="640" class="return-message"/>
  <text x="420" y="635" class="message-text">15: target creation result</text>
  
  <!-- 16. Success Response -->
  <line x1="335" y1="680" x2="140" y2="680" class="return-message"/>
  <text x="220" y="675" class="message-text">16: 201 Created</text>
  <text x="220" y="695" class="message-text">{yearly_targets}</text>
  
  <!-- Notes -->
  <rect x="50" y="720" width="200" height="40" class="note"/>
  <text x="150" y="735" class="note-text">Target Types:</text>
  <text x="150" y="750" class="note-text">HT, DM, Patient Registration</text>
  
  <rect x="300" y="720" width="200" height="40" class="note"/>
  <text x="400" y="735" class="note-text">Auto Distribution:</text>
  <text x="400" y="750" class="note-text">Based on Puskesmas capacity</text>
  
</svg>